<svg width="16" height="16" viewBox="0 0 16 16" fill="none" xmlns="http://www.w3.org/2000/svg">
<path fill-rule="evenodd" clip-rule="evenodd" d="M1 0.5C1 0.223858 1.22386 0 1.5 0H4.5L4.50109 1.10269e-06L4.50242 5.06639e-06L4.50578 2.52724e-05L4.51523 0.000141323L4.54473 0.000887901C4.56894 0.0016948 4.60213 0.00323126 4.64305 0.00615346C4.7247 0.0119857 4.83808 0.023408 4.97282 0.0458655C5.23995 0.0903857 5.60375 0.180358 5.97361 0.365286C6.34542 0.551194 6.73245 0.837907 7.0254 1.27734C7.32044 1.7199 7.5 2.28751 7.5 3C7.5 3.71249 7.32044 4.2801 7.0254 4.72266C6.73245 5.16209 6.34542 5.44881 5.97361 5.63471C5.60375 5.81964 5.23995 5.90961 4.97282 5.95413C4.83808 5.97659 4.7247 5.98801 4.64305 5.99385C4.60213 5.99677 4.56894 5.99831 4.54473 5.99911L4.51523 5.99986L4.50578 5.99997L4.50242 5.99999L4.50109 6L4.5 6H2V9.5C2 9.77614 1.77614 10 1.5 10C1.22386 10 1 9.77614 1 9.5V0.5ZM2 1V5H4.49834L4.51142 4.99967C4.52383 4.99925 4.54435 4.99835 4.5718 4.99639C4.62686 4.99245 4.7088 4.98435 4.80843 4.96774C5.01005 4.93414 5.27125 4.86786 5.52639 4.74029C5.77958 4.61369 6.01755 4.43166 6.19335 4.16796C6.36706 3.9074 6.5 3.53751 6.5 3C6.5 2.46249 6.36706 2.0926 6.19335 1.83204C6.01755 1.56834 5.77958 1.38631 5.52639 1.25971C5.27125 1.13214 5.01005 1.06586 4.80843 1.03226C4.7088 1.01565 4.62686 1.00755 4.5718 1.00361C4.54435 1.00165 4.52383 1.00075 4.51142 1.00033L4.49911 1.00001M0 15.5C0 15.2239 0.223858 15 0.5 15H15.5C15.7761 15 16 15.2239 16 15.5C16 15.7761 15.7761 16 15.5 16H0.5C0.223858 16 0 15.7761 0 15.5Z" fill="#8F97A3"/>
<path d="M14.9797 2.64108C15.0576 2.37616 14.906 2.09824 14.6411 2.02032C14.3762 1.9424 14.0982 2.094 14.0203 2.35892L12.4206 7.79793L9.44024 2.26295C9.30932 2.01981 9.00609 1.92885 8.76295 2.05976C8.51981 2.19068 8.42885 2.49391 8.55976 2.73705L12.0194 9.16207L11.5237 10.8476L11.523 10.8493C11.5203 10.857 11.5157 10.8696 11.5093 10.8865C11.4965 10.9202 11.4765 10.9703 11.4493 11.0313C11.3945 11.1547 11.3138 11.3155 11.209 11.4726C10.9791 11.8174 10.7346 12 10.5 12C10.2125 12 10.0301 11.9296 9.91016 11.8496C9.78709 11.7676 9.69881 11.6546 9.63471 11.5264C9.56964 11.3963 9.53461 11.2601 9.51663 11.1522C9.50784 11.0994 9.50364 11.0566 9.50166 11.0288C9.50068 11.0151 9.50026 11.0053 9.50009 11.0002L9.49999 10.9965C9.49811 10.722 9.27497 10.5 9 10.5C8.72386 10.5 8.5 10.7239 8.5 11L8.5 11.001L8.5 11.0022L8.50002 11.0051L8.50011 11.0124L8.50064 11.0335C8.50121 11.0504 8.50225 11.0728 8.5042 11.1001C8.50808 11.1544 8.5156 11.2287 8.53024 11.3166C8.55914 11.4899 8.61786 11.7287 8.74029 11.9736C8.86369 12.2204 9.05666 12.4824 9.35546 12.6817C9.6574 12.8829 10.0375 13 10.5 13C11.2654 13 11.7709 12.4326 12.041 12.0274C12.1862 11.8095 12.293 11.5953 12.3632 11.4374C12.3985 11.3578 12.4254 11.2908 12.4438 11.2425C12.453 11.2183 12.4602 11.1986 12.4652 11.1844L12.4713 11.167L12.4732 11.1615L12.4739 11.1595L12.4743 11.1581C12.4762 11.1525 12.478 11.1468 12.4797 11.1411L14.9797 2.64108Z" fill="#8F97A3"/>
</svg>
